<svg xmlns="http://www.w3.org/2000/svg" fill="none" viewBox="0 0 32 32"><g clip-path="url(#a)"><path fill="#007DF6" fill-rule="evenodd" d="M9.62087 14.7685H9.4434c-1.36655 0-2.54211.8177-3.06399 1.9906-.30627-.0786-.58959-.2352-.82026-.4578-.351-.3377-.55253-.8001-.56025-1.2854-.00772-.4853.17901-.9537.5191-1.3023L17.9576.963675c.1681-.173798.3691-.312911.5915-.409353.2224-.096442.4618-.148314.7044-.152639.2427-.004324.4838.038984.7095.12744.2257.088455.4316.220316.6059.388012.1743.167695.3135.367925.4097.589195.0961.22126.1473.45921.1507.70018.0033.24097-.0414.48022-.1314.70401-.0901.22379-.2237.42772-.3934.60007L9.62087 14.7685Zm8.58473 0h-4.9431c.0879-.2066.2139-.3963.3726-.559l9.8245-10.06995c.3414-.33674.8022-.52705 1.2834-.53002.4812-.00296.9443.18164 1.29.51416.3456.33251.546.78639.5583 1.2641.0122.47772-.1647.94115-.4928 1.29071l-7.8929 8.09ZM6.09143 21.9029v.7198h4.17347v.2626L6.90424 26.33c-.17166.1763-.37736.3165-.60479.4121-.22743.0956-.47193.1447-.7189.1443-.47873.0007-.93879-.1844-1.28212-.5157-.17385-.1672-.31283-.3668-.40899-.5874-.09615-.2205-.14761-.4577-.15144-.698-.00382-.2403.04007-.4791.12917-.7025.0891-.2235.22166-.4273.3901-.5999l1.83416-1.88Zm4.17347 4.3623V29.86c-.2116-.0875-.40678-.2143-.57417-.376-.35106-.3376-.55267-.8-.56046-1.2853-.0078-.4853.17885-.9538.51889-1.3024l.61574-.6311Zm16.3488-11.4967h-5.1321l5.3519-5.48546c.3417-.34138.8051-.53532 1.2898-.53981.4847-.0045.9517.1808 1.2998.51577.3481.33497.5493.7926.56 1.2739.0108.4812-.1698.9473-.5026 1.2973l-2.8668 2.9383ZM.825059 12.6884c.301781.1986.655761.3045 1.017761.3045.24698.0003.49148-.0489.71891-.1445.22743-.0956.43312-.2358.60478-.4122l4.68488-4.80179c.33489-.3496.51721-.81638.50732-1.2988-.0099-.48242-.21122-.94144-.56018-1.2772-.34895-.33576-.81729-.5211-1.30314-.51569-.48585.00541-.9499.20112-1.29118.54457L.51933 9.88932c-.251895.25818-.4216406.58428-.4880517.93768-.0664112.3534-.02654611.7184.1146197 1.0494.141167.3311.377381.6135.679161.812ZM3.87364 20.495c.09146-.2243.13723-.4644.13466-.7064-.00513-.482-.20156-.9426-.54662-1.2816-.34506-.3391-.81089-.5293-1.29633-.5293-.48543 0-.95126.1902-1.296322.5293-.345062.339-.541487.7996-.546616 1.2816-.002575.242.043193.4821.134655.7064.091462.2243.226802.4283.398191.6003.171392.172.375422.3086.600302.4018.22487.0932.46612.1412.70979.1412.24368 0 .48493-.048.7098-.1412.22488-.0932.42891-.2298.6003-.4018.17139-.172.30673-.376.39819-.6003ZM12.6215 2.53084c.0926-.22204.1403-.46002.1403-.70035 0-.36201-.108-.71591-.3105-1.016927-.2025-.301021-.4904-.535645-.8272-.674201-.3367-.1385552-.7073-.1748182-1.0649-.1042027-.3575.0706157-.68593.2449377-.94369.5009207-.25777.255982-.43331.58213-.50441.93719-.07111.35506-.0346.72308.10493 1.05753.13952.33445.37578.6203.67889.8214.30308.2011.65948.30842 1.02398.30838.242 0 .4817-.04734.7053-.13931.2236-.09197.4267-.22677.5978-.39671.1711-.16994.3069-.37169.3995-.59372Z" clip-rule="evenodd"/><path fill="#D1F4FF" d="m19.7394 27.2403 2.8579-.2719c.172.9387.5193 1.6281 1.0419 2.0683.5293.4402 1.2405.6602 2.1336.6602.946 0 1.6572-.1942 2.1335-.5826.4829-.3948.7244-.8544.7244-1.3788 0-.3366-.1026-.6214-.3076-.8545-.1985-.2395-.5491-.4466-1.0519-.6214-.344-.1165-1.128-.3237-2.3518-.6215-1.5745-.3819-2.6793-.8512-3.3144-1.4079-.8931-.7833-1.3397-1.7381-1.3397-2.8645 0-.725.2084-1.4015.6252-2.0294.4234-.6344 1.0287-1.1167 1.816-1.4468.7938-.3301 1.7498-.4952 2.8678-.4952 1.8259 0 3.1986.3916 4.1182 1.1749.9261.7833 1.4124 1.8287 1.4587 3.1364l-2.9373.1262c-.1257-.7315-.3969-1.2558-.8137-1.573-.4102-.3237-1.0287-.4855-1.8557-.4855-.8534 0-1.5216.1715-2.0045.5146-.3109.2201-.4664.5146-.4664.8836 0 .3366.1456.6247.4366.8642.3705.3042 1.2702.6214 2.6992.9516 1.4289.3301 2.4841.6732 3.1655 1.0293.688.3495 1.2239.8318 1.6076 1.4468.3903.6085.5855 1.3626.5855 2.2624 0 .8156-.2316 1.5795-.6947 2.2916-.463.712-1.118 1.2429-1.9648 1.5924-.8468.3431-1.9019.5147-3.1655.5147-1.8391 0-3.2516-.4143-4.2373-1.2429-.9857-.8351-1.5745-2.0488-1.7663-3.6413ZM12.4805 31.8767V20.0498H8.16382v-2.4081H19.7245v2.4081h-4.3067v11.8269h-2.9373Z"/></g><defs><clipPath id="a"><path fill="#fff" d="M0 0h32v32H0z"/></clipPath></defs></svg>