<svg xmlns="http://www.w3.org/2000/svg" fill="none" viewBox="0 0 32 32"><g clip-path="url(#a)"><path fill="#E04E39" fill-rule="evenodd" d="M6.84149 16.8171c-.4788.0006-.93893-.1844-1.28234-.5158-.351-.3377-.55253-.8001-.56025-1.2854-.00772-.4853.17901-.9537.5191-1.3023L17.9576.963676c.1681-.173799.3691-.312912.5915-.409354.2224-.096442.4618-.148314.7044-.152639.2427-.004324.4838.038984.7095.12744.2257.088455.4316.220316.6059.388012.1743.167695.3135.367925.4097.589195.0961.22126.1473.45921.1507.70018.0033.24097-.0414.48022-.1314.70401-.0901.22379-.2237.42772-.3934.60007L8.16518 16.2605c-.17168.1764-.37739.3166-.60486.4122-.22747.0956-.47182.1448-.71883.1444Zm6.55671-2.3075c.5274-.4605 1.2174-.7396 1.9725-.7396h3.0023c.2488 0 .4904.0303.7215.0873l7.004-7.1788c.3281-.34956.505-.81299.4928-1.29071-.0123-.47771-.2127-.93159-.5583-1.2641-.3457-.33252-.8088-.51712-1.29-.51416-.4812.00297-.942.19328-1.2834.53002L13.6351 14.2095c-.0898.092-.1691.1927-.2369.3001Zm-3.54826 8.8011 1.73916-1.7827c.3329-.35.5135-.8161.5027-1.2974-.0107-.4812-.212-.9389-.5601-1.2739-.3482-.3349-.8152-.5202-1.2999-.5156-.48476.0045-.94816.1985-1.28985.54l-4.68468 4.8018c-.16844.1726-.301.3764-.3901.5999-.0891.2234-.13299.4622-.12917.7025.00383.2403.05529.4775.15144.698.09616.2206.23514.4202.40899.5874.34333.3313.80339.5164 1.28212.5157.08586.0002.17142-.0057.25607-.0174-.00595-.139-.00917-.2782-.00981-.4174-.00697-1.5378 1.15009-2.8319 2.67915-2.9964l1.34398-.1445ZM25.6343 13.27c-1.0466 0-2.0717.107-3.0434.3615l4.2426-4.34846c.3417-.34138.8051-.53532 1.2898-.53981.4847-.0045.9517.1808 1.2998.51577.3481.33497.5493.7926.56 1.2739.0108.4812-.1698.9473-.5026 1.2973l-1.5769 1.6162c-.742-.1242-1.5052-.1764-2.2693-.1764Zm-23.79148-.2771c-.362 0-.71598-.1059-1.017761-.3045-.30178-.1985-.537994-.4809-.679161-.812-.14116581-.331-.1810309-.696-.1146197-1.0494.0664111-.3534.2361567-.6795.4880517-.93768l4.68488-4.80203c.34128-.34345.80533-.53916 1.29118-.54457.48585-.00541.95419.17993 1.30314.51569.34896.33576.55028.79478.56018 1.2772.00989.48242-.17243.9492-.50732 1.2988L3.16651 12.4362c-.17166.1764-.37735.3166-.60478.4122-.22743.0956-.47193.1448-.71891.1445Zm2.16548 6.7957c.00257.242-.0432.4821-.13466.7064-.09146.2243-.2268.4283-.39819.6003-.17139.172-.37542.3086-.6003.4018-.22487.0932-.46612.1412-.7098.1412-.24367 0-.48492-.048-.70979-.1412-.22488-.0932-.42891-.2298-.600302-.4018-.171389-.172-.306729-.376-.398191-.6003-.091462-.2243-.13723-.4644-.134655-.7064.005129-.482.201554-.9426.546616-1.2816.345062-.3391.810892-.5293 1.296322-.5293.48544 0 .95127.1902 1.29633.5293.34506.339.54149.7996.54662 1.2816Zm8.7535-17.95811c0 .24033-.0477.47831-.1403.70035-.0926.22203-.2284.42378-.3995.59372-.1711.16994-.3742.30474-.5978.39671-.2236.09197-.4633.13931-.7053.13931-.3645.00004-.7209-.10728-1.02398-.30838-.30311-.2011-.53937-.48695-.67889-.8214-.13953-.33445-.17604-.70247-.10493-1.05753.0711-.35506.24664-.681208.50441-.93719.25776-.255983.58619-.430305.94369-.5009207.3576-.0706155.7282-.0343525 1.0649.1042027.3368.138556.6247.37318.8272.674201.2025.301017.3105.654917.3105 1.016927Z" clip-rule="evenodd"/><path fill="#FFEF61" d="M15.2565 17.1978h3.0023v8.8567c0 1.158-.1086 2.0488-.3257 2.6723-.2917.8144-.821 1.4698-1.5876 1.9661-.7667.4899-1.7777.7349-3.0329.7349-1.4723 0-2.6053-.385-3.39916-1.1549-.79383-.7762-1.19413-1.9119-1.20092-3.4071l2.83948-.3055c.0339.8017.1594 1.368.3765 1.6989.3257.5026.821.7539 1.4859.7539.6717 0 1.1466-.1781 1.4248-.5344.2782-.3627.4173-1.1103.4173-2.2428v-9.0381ZM19.6577 26.8459l2.982-.2719c.1795.9386.5419 1.628 1.0872 2.0682.5523.4402 1.2943.6603 2.2262.6603.9871 0 1.7292-.1942 2.2262-.5826.5039-.3949.7559-.8545.7559-1.3788 0-.3366-.107-.6214-.321-.8545-.2071-.2395-.573-.4466-1.0976-.6214-.3589-.1165-1.1769-.3237-2.454-.6215-1.6428-.3819-2.7956-.8512-3.4583-1.4079-.9319-.7833-1.3978-1.7381-1.3978-2.8644 0-.725.2174-1.4015.6523-2.0294.4418-.6344 1.0734-1.1167 1.8948-1.4468C23.582 17.1651 24.5794 17 25.746 17c1.9052 0 3.3376.3916 4.2971 1.1749.9664.7833 1.4737 1.8287 1.522 3.1363l-3.0648.1262c-.1312-.7314-.4142-1.2558-.8491-1.573-.428-.3236-1.0734-.4855-1.9362-.4855-.8905 0-1.5877.1716-2.0916.5147-.3244.2201-.4866.5146-.4866.8836 0 .3366.1518.6246.4555.8642.3866.3042 1.3254.6214 2.8164.9515 1.491.3302 2.592.6733 3.303 1.0293.7179.3495 1.277.8318 1.6774 1.4468.4073.6085.6109 1.3626.6109 2.2624 0 .8156-.2416 1.5795-.7248 2.2915-.4832.7121-1.1666 1.2429-2.0501 1.5925-.8836.3431-1.9846.5146-3.303.5146-1.919 0-3.3928-.4143-4.4213-1.2429-1.0285-.835-1.6429-2.0488-1.8431-3.6412Z"/></g><defs><clipPath id="a"><path fill="#fff" d="M0 0h32v32H0z"/></clipPath></defs></svg>